# xmcd
#
# Track frame offsets: 
#        150
#        12344
#        38113
#        52097
#        74178
#        86152
#        96718
#        108010
#        120040
#        132730
#        145236
#        156887
#        166697
#        178836
#        196097
#        208361
#        223278
#        237761
#        256809
#
# Disc length: 3955 seconds
#
# Revision: 2
# Processed by: cddbd v1.5.2PL0 Copyright (c) Steve Scherf et al.
# Submitted via: ExactAudioCopy v0.99pb4
#
DISCID=1f0f7113
DTITLE=Various Artist - It Came From Memphis [CD2]
DYEAR=2005
DGENRE=Rock
TTITLE0=Booker T. and The MG's - My Sweet Potato
TTITLE1=Jim Dickinson - Down In Mississippi
TTITLE2=Johnny Woods - Jes' Like A Monkey
TTITLE3=The Bo-Keys - Spanish Delight
TTITLE4=Howlin' Wolf - Howlin' Wolf Boogie
TTITLE5=Jerry Lee Lewis - Hand Me Down My Walking Cane
TTITLE6=The Country Rockers - The Image Of Me
TTITLE7=The Merits - Please, Please Little Girl
TTITLE8=Big Star - September Gurls
TTITLE9=Memphis Jug Band - Whitewash Station Blues
TTITLE10=Travis Wammack - Scratchy
TTITLE11=Sonny Burgess - Red Headed Woman
TTITLE12=Tearjerkers - White Lie, Black Eye
TTITLE13=Reigning Sound - If You Can't Give Me Everything
TTITLE14=William Bell - You Don't Miss Your Water
TTITLE15=Donnie Fritts with Lucinda Williams - Breakfast In Bed
TTITLE16=The Country Soul Review feat George Soule - I'm Only Human
TTITLE17=Al Green - Simply Beautiful
TTITLE18=Bobby Rush - Sue
EXTD=
EXTT0=
EXTT1=
EXTT2=
EXTT3=
EXTT4=
EXTT5=
EXTT6=
EXTT7=
EXTT8=
EXTT9=
EXTT10=
EXTT11=
EXTT12=
EXTT13=
EXTT14=
EXTT15=
EXTT16=
EXTT17=
EXTT18=
PLAYORDER=
